<svg xmlns="http://www.w3.org/2000/svg" width="600" height="207"><g fill="none" fill-rule="evenodd"><path fill="#BB2029" d="M0 207h207V0H0z"/><path fill="#FFF" d="M178.362 178.362h-79.54v-79.54l23.796 23.796s18.583-17.824 6.75-34.842c-6.232-8.964-18.96-8.271-18.96-8.271H79.51v98.857H31.41V31.598h88.303s47.795-.07 60.04 55.564c9.84 44.71-23.453 69.137-23.453 69.137l22.063 22.063Z"/><g fill="#000"><path d="M357.786 84.616c0 15.577 7.11 27.774 21.57 27.774 14.937 0 20.695-13.99 20.695-27.38 0-14.595-6.406-27.279-21.421-27.279-14.442 0-20.844 13.003-20.844 26.885m64.164.137c0 24.49-14.712 46.369-43.659 46.369-26.988 0-42.404-20.48-42.404-46.273 0-24.302 16.325-45.849 43.3-45.849 27.79 0 42.763 21.658 42.763 45.753M594.943 92.049h-43.752v20.147h48.81v17.203h-69.86V40.88H600v17.203h-48.81v16.763h43.752zM483.02 75.171h-.53l32.092-34.18h-27.88l-29.03 34.18v-34.18H436.99v88.359h20.683v-27.743l8.912-9.494 25.175 37.237 28.555-.111zM273.099 78.757h19.289c8.478 0 13.84-2.965 13.84-11.313 0-6.804-4.105-11.013-13.84-11.013h-19.29v22.326Zm-21.528-38.06h42.681c19.18 0 31.935 9.88 31.935 26.418 0 17.192-12.013 27.48-32.249 27.48h-20.84v34.582h-21.527v-88.48Z"/></g><g fill="#BB2029" fill-rule="nonzero"><path d="M256.433 147.573v5.58c0 3.784-.294 6.72-1.044 9.266-.522 1.729-1.338 3.328-2.154 4.829l-1.664.065.196 7.537h2.219l.196-5.286h13.866l.196 5.286h2.219l.195-7.537-1.925-.065v-19.675h-12.3Zm2.643 2.35h6.819v17.292h-9.723c.652-1.175 1.338-2.643 1.794-4.176.783-2.48 1.11-5.45 1.11-8.973v-4.144ZM285.634 156.904h-8.548v-6.949h9.037v-2.382h-11.876v21.991h12.366v-2.382h-9.527v-7.928h8.548zM294.64 169.564h2.87v-19.577h6.722v-2.414h-16.28v2.414h6.687zM315.39 162.647l2.35 6.917h3.034l-7.504-21.99h-3.426l-7.472 21.99h2.937l2.284-6.917h7.798Zm-7.21-2.219 2.153-6.362a66.556 66.556 0 0 0 1.11-3.98h.065c.326 1.272.653 2.577 1.142 4.013l2.153 6.33h-6.623ZM326.647 147.573v9.266c0 3.524-.163 7.798-1.925 9.528-.522.489-1.435 1.011-2.316 1.174l.359 2.284c1.272 0 2.544-.522 3.36-1.044 3.1-2.088 3.296-7.406 3.296-12.17v-6.656h7.275v19.61h2.872v-21.992h-12.92ZM344.494 147.573v21.991h3.035l6.884-10.93c1.501-2.447 3.002-4.992 4.079-7.407l.097.033c-.228 2.773-.26 5.384-.26 8.94v9.364h2.675v-21.99h-2.839l-7.112 11.32c-1.6 2.611-2.97 4.993-4.079 7.277l-.065-.033c.196-2.936.26-5.807.26-9.299v-9.266h-2.675ZM377.056 169.564h2.871v-19.577h6.722v-2.414h-16.28v2.414h6.687zM389.096 169.564h2.839v-8.81c.652.164 1.435.196 2.284.196 2.773 0 5.22-.815 6.72-2.414 1.11-1.142 1.698-2.708 1.698-4.698 0-1.958-.718-3.557-1.925-4.6-1.306-1.175-3.361-1.828-6.167-1.828-2.284 0-4.079.196-5.449.424v21.73Zm2.839-19.674c.49-.13 1.435-.229 2.675-.229 3.132 0 5.188 1.403 5.188 4.307 0 3.035-2.088 4.699-5.514 4.699-.946 0-1.73-.066-2.35-.229v-8.548ZM403.648 147.573l7.309 14.813c.26.522.326.848.097 1.338-.685 1.566-2.022 3.752-4.306 3.785-.49 0-.816-.033-1.044-.098l-.294 2.316c.359.13.88.196 1.599.196 1.957 0 3.556-.914 4.992-2.708 1.533-2.056 2.903-5.416 4.11-8.353l4.601-11.289h-3.002l-3.425 9.266c-.555 1.567-.98 2.839-1.37 3.98h-.066a194.805 194.805 0 0 0-1.599-3.882l-4.372-9.364h-3.23ZM423.061 147.573V169.5c.947.13 2.447.26 4.438.26 3.001 0 5.97-.684 7.765-2.446 1.142-1.142 1.827-2.708 1.827-4.764 0-2.577-1.142-4.307-2.806-5.383-1.533-1.012-3.589-1.469-5.677-1.469-.718 0-2.023.066-2.708.164v-5.906h9.495v-2.382H423.06Zm2.839 10.474c.718-.066 1.599-.13 2.251-.13 1.566 0 3.035.325 4.177 1.108 1.076.75 1.794 1.893 1.794 3.59 0 1.37-.457 2.447-1.207 3.23-1.077 1.142-2.871 1.696-4.633 1.696-.98 0-1.73-.032-2.382-.163v-9.331ZM449.392 147.214c-5.873 0-10.213 4.568-10.213 11.55 0 6.656 4.079 11.159 9.886 11.159 5.612 0 10.213-4.013 10.213-11.583 0-6.525-3.883-11.126-9.886-11.126Zm-.13 2.317c4.73 0 7.014 4.568 7.014 8.94 0 4.992-2.545 9.135-7.047 9.135-4.47 0-7.015-4.208-7.015-8.907 0-4.829 2.349-9.168 7.047-9.168ZM462.964 147.573v21.991h2.84v-19.609h10.211v19.61h2.84v-21.992zM483.814 169.564h2.838v-8.81c.653.164 1.436.196 2.284.196 2.773 0 5.22-.815 6.721-2.414 1.11-1.142 1.697-2.708 1.697-4.698 0-1.958-.718-3.557-1.925-4.6-1.305-1.175-3.36-1.828-6.167-1.828-2.283 0-4.078.196-5.448.424v21.73Zm2.838-19.674c.49-.13 1.436-.229 2.676-.229 3.132 0 5.187 1.403 5.187 4.307 0 3.035-2.088 4.699-5.514 4.699-.946 0-1.729-.066-2.349-.229v-8.548ZM509.818 147.214c-5.873 0-10.213 4.568-10.213 11.55 0 6.656 4.079 11.159 9.886 11.159 5.612 0 10.213-4.013 10.213-11.583 0-6.525-3.883-11.126-9.886-11.126Zm-.13 2.317c4.73 0 7.014 4.568 7.014 8.94 0 4.992-2.545 9.135-7.047 9.135-4.47 0-7.015-4.208-7.015-8.907 0-4.829 2.349-9.168 7.047-9.168ZM523.39 169.499c.947.13 2.448.26 4.405.26 3.59 0 6.07-.652 7.603-2.055 1.109-1.076 1.86-2.512 1.86-4.404 0-3.263-2.448-4.992-4.536-5.514v-.066c2.317-.848 3.72-2.708 3.72-4.829 0-1.729-.685-3.034-1.827-3.882-1.37-1.11-3.198-1.599-6.036-1.599-1.99 0-3.948.196-5.188.457v21.632Zm2.84-19.707c.456-.098 1.207-.196 2.512-.196 2.87 0 4.829 1.012 4.829 3.59 0 2.12-1.762 3.686-4.764 3.686h-2.578v-7.08Zm0 9.233h2.349c3.1 0 5.677 1.24 5.677 4.242 0 3.197-2.708 4.274-5.645 4.274-1.011 0-1.827-.032-2.382-.13v-8.386ZM549.721 147.214c-5.873 0-10.212 4.568-10.212 11.55 0 6.656 4.078 11.159 9.886 11.159 5.612 0 10.212-4.013 10.212-11.583 0-6.525-3.882-11.126-9.886-11.126Zm-.13 2.317c4.73 0 7.014 4.568 7.014 8.94 0 4.992-2.544 9.135-7.047 9.135-4.47 0-7.015-4.208-7.015-8.907 0-4.829 2.35-9.168 7.048-9.168ZM565.35 147.573v5.58c0 3.784-.294 6.72-1.044 9.266-.522 1.729-1.338 3.328-2.154 4.829l-1.664.065.196 7.537h2.219l.195-5.286h13.867l.196 5.286h2.218l.196-7.537-1.925-.065v-19.675h-12.3Zm2.642 2.35h6.82v17.292h-9.723c.652-1.175 1.337-2.643 1.794-4.176.783-2.48 1.11-5.45 1.11-8.973v-4.144ZM594.616 162.647l2.35 6.917H600l-7.504-21.99h-3.426l-7.472 21.99h2.937l2.284-6.917h7.797Zm-7.21-2.219 2.153-6.362a66.556 66.556 0 0 0 1.11-3.98h.065c.326 1.272.652 2.577 1.142 4.013l2.153 6.33h-6.623Z"/></g></g></svg>